# This file is brought to you by Roblox Corporation
# Generated by Roblox Studio

mtllib retard.mtl

g Dummy1

v -12.23 5.13 79.19 
v -12.23 5.13 80.19 
v -12.23 4.13 79.19 
v -12.23 4.13 80.19 
v -14.23 5.13 80.19 
v -12.23 5.13 80.19 
v -14.23 5.13 79.19 
v -12.23 5.13 79.19 
v -12.23 5.13 80.19 
v -14.23 5.13 80.19 
v -12.23 4.13 80.19 
v -14.23 4.13 80.19 
v -14.23 5.13 80.19 
v -14.23 5.13 79.19 
v -14.23 4.13 80.19 
v -14.23 4.13 79.19 
v -14.23 4.13 79.19 
v -12.23 4.13 79.19 
v -14.23 4.13 80.19 
v -12.23 4.13 80.19 
v -14.23 5.13 79.19 
v -12.23 5.13 79.19 
v -14.23 4.13 79.19 
v -12.23 4.13 79.19 

vn 1 0 0 
vn 1 0 0 
vn 1 0 0 
vn 1 0 0 
vn 0 1 0 
vn 0 1 0 
vn 0 1 0 
vn 0 1 0 
vn 0 0 1 
vn 0 0 1 
vn 0 0 1 
vn 0 0 1 
vn -1 0 0 
vn -1 0 0 
vn -1 0 0 
vn -1 0 0 
vn 0 -1 0 
vn 0 -1 0 
vn 0 -1 0 
vn 0 -1 0 
vn 0 0 -1 
vn 0 0 -1 
vn 0 0 -1 
vn 0 0 -1 

vt 3.03507 0.345429 
vt 1.73507 0.345429 
vt 3.03507 -0.954571 
vt 1.73507 -0.954571 
vt 4.33507 0.345429 
vt 1.73507 0.345429 
vt 4.33507 -0.954571 
vt 1.73507 -0.954571 
vt 4.33507 0.345429 
vt 1.73507 0.345429 
vt 4.33507 -0.954571 
vt 1.73507 -0.954571 
vt 3.03507 0.345429 
vt 1.73507 0.345429 
vt 3.03507 -0.954571 
vt 1.73507 -0.954571 
vt 4.33507 0.345429 
vt 1.73507 0.345429 
vt 4.33507 -0.954571 
vt 1.73507 -0.954571 
vt 4.33507 0.345429 
vt 1.73507 0.345429 
vt 4.33507 -0.954571 
vt 1.73507 -0.954571 

usemtl Dummy1Mtl

f 1/1/1 2/2/2 3/3/3 
f 3/3/3 2/2/2 4/4/4 
f 5/5/5 6/6/6 7/7/7 
f 7/7/7 6/6/6 8/8/8 
f 9/9/9 10/10/10 11/11/11 
f 11/11/11 10/10/10 12/12/12 
f 13/13/13 14/14/14 15/15/15 
f 15/15/15 14/14/14 16/16/16 
f 17/17/17 18/18/18 19/19/19 
f 19/19/19 18/18/18 20/20/20 
f 21/21/21 22/22/22 23/23/23 
f 23/23/23 22/22/22 24/24/24 

g Dummy2

v -14.23 5.13 79.17 
v -12.23 5.13 79.17 
v -14.23 4.13 79.17 
v -12.23 4.13 79.17 

vn 0 0 -1 
vn 0 0 -1 
vn 0 0 -1 
vn 0 0 -1 

vt 1 1 
vt 0 1 
vt 1 0 
vt 0 0 

usemtl Dummy2Mtl

f 25/25/25 26/26/26 27/27/27 
f 27/27/27 26/26/26 28/28/28 

g Dummy3

v -12.165 4.065 80.19 
v -12.165 2.195 80.19 
v -11.295 2.195 80.19 
v -11.295 4.065 80.19 
v -12.165 4.13 80.125 
v -12.23 4.065 80.125 
v -12.23 2.195 80.125 
v -12.165 2.13 80.125 
v -11.295 2.13 80.125 
v -11.23 2.195 80.125 
v -11.23 4.065 80.125 
v -11.295 4.13 80.125 
v -12.165 4.13 80.125 
v -12.165 4.13 79.255 
v -12.23 4.065 79.255 
v -12.23 4.065 80.125 
v -12.23 2.195 79.255 
v -12.23 2.195 80.125 
v -12.165 2.13 79.255 
v -12.165 2.13 80.125 
v -12.165 2.13 80.125 
v -12.165 2.13 79.255 
v -11.295 2.13 79.255 
v -11.295 2.13 80.125 
v -11.295 2.13 80.125 
v -11.295 2.13 79.255 
v -11.23 2.195 79.255 
v -11.23 4.065 79.255 
v -11.295 4.13 79.255 
v -11.295 4.13 80.125 
v -11.295 4.13 80.125 
v -11.295 4.13 79.255 
v -12.165 4.13 79.255 
v -12.165 4.13 80.125 
v -12.165 4.13 79.255 
v -12.165 4.065 79.19 
v -12.165 2.195 79.19 
v -12.165 2.13 79.255 
v -11.295 2.195 79.19 
v -11.295 2.13 79.255 
v -11.295 4.065 79.19 
v -11.295 4.13 79.255 

vn 0 0 1 
vn 0 0 1 
vn 0 0 1 
vn 0 0 1 
vn 0 1 0 
vn -1 0 0 
vn -1 0 0 
vn 0 -1 0 
vn 0 -1 0 
vn 1 0 0 
vn 1 0 0 
vn 0 1 0 
vn 0 1 0 
vn 0 1 0 
vn -1 0 0 
vn -1 0 0 
vn -1 0 0 
vn -1 0 0 
vn 0 -1 0 
vn 0 -1 0 
vn 0 -1 0 
vn 0 -1 0 
vn 0 -1 0 
vn 0 -1 0 
vn 0 -1 0 
vn 0 -1 0 
vn 1 0 0 
vn 1 0 0 
vn 0 1 0 
vn 0 1 0 
vn 0 1 0 
vn 0 1 0 
vn 0 1 0 
vn 0 1 0 
vn 0 1 0 
vn 0 0 -1 
vn 0 0 -1 
vn 0 -1 0 
vn 0 0 -1 
vn 0 -1 0 
vn 0 0 -1 
vn 0 1 0 

vt 0.262207 0.871094 
vt 0.171387 0.871094 
vt 0.171387 0.753906 
vt 0.262207 0.753906 
vt 0.265137 0.871094 
vt 0.262207 0.878906 
vt 0.171387 0.878906 
vt 0.168457 0.871094 
vt 0.168457 0.753906 
vt 0.171387 0.746094 
vt 0.262207 0.746094 
vt 0.265137 0.753906 
vt 0.265137 0.378906 
vt 0.265137 0.496094 
vt 0.262207 0.496094 
vt 0.262207 0.378906 
vt 0.171387 0.496094 
vt 0.171387 0.378906 
vt 0.168457 0.496094 
vt 0.168457 0.378906 
vt 0.602051 0.238281 
vt 0.602051 0.355469 
vt 0.558106 0.355469 
vt 0.558106 0.238281 
vt 0.168457 0.746094 
vt 0.168457 0.628906 
vt 0.171387 0.628906 
vt 0.262207 0.628906 
vt 0.265137 0.628906 
vt 0.265137 0.746094 
vt 0.663574 0.355469 
vt 0.663574 0.238281 
vt 0.707519 0.238281 
vt 0.707519 0.355469 
vt 0.265137 0.503906 
vt 0.262207 0.503906 
vt 0.171387 0.503906 
vt 0.168457 0.503906 
vt 0.171387 0.621094 
vt 0.168457 0.621094 
vt 0.262207 0.621094 
vt 0.265137 0.621094 

usemtl Dummy3Mtl

f 29/29/29 30/30/30 31/31/31 
f 29/29/29 31/31/31 32/32/32 
f 29/29/29 33/33/33 34/34/34 
f 29/29/29 34/34/34 35/35/35 
f 29/29/29 35/35/35 30/30/30 
f 30/30/30 35/35/35 36/36/36 
f 30/30/30 36/36/36 37/37/37 
f 30/30/30 37/37/37 31/31/31 
f 31/31/31 37/37/37 38/38/38 
f 31/31/31 38/38/38 39/39/39 
f 31/31/31 39/39/39 32/32/32 
f 32/32/32 39/39/39 40/40/40 
f 32/32/32 40/40/40 33/33/33 
f 32/32/32 33/33/33 29/29/29 
f 41/41/41 42/42/42 43/43/43 
f 41/41/41 43/43/43 44/44/44 
f 44/44/44 43/43/43 45/45/45 
f 44/44/44 45/45/45 46/46/46 
f 46/46/46 45/45/45 47/47/47 
f 46/46/46 47/47/47 48/48/48 
f 49/49/49 50/50/50 51/51/51 
f 49/49/49 51/51/51 52/52/52 
f 53/53/53 54/54/54 55/55/55 
f 53/53/53 55/55/55 38/38/38 
f 38/38/38 55/55/55 56/56/56 
f 38/38/38 56/56/56 39/39/39 
f 39/39/39 56/56/56 57/57/57 
f 39/39/39 57/57/57 58/58/58 
f 59/59/59 60/60/60 61/61/61 
f 59/59/59 61/61/61 62/62/62 
f 63/63/63 64/64/64 43/43/43 
f 43/43/43 64/64/64 65/65/65 
f 43/43/43 65/65/65 45/45/45 
f 45/45/45 65/65/65 66/66/66 
f 66/66/66 65/65/65 67/67/67 
f 66/66/66 67/67/67 68/68/68 
f 68/68/68 67/67/67 55/55/55 
f 55/55/55 67/67/67 69/69/69 
f 55/55/55 69/69/69 56/56/56 
f 56/56/56 69/69/69 70/70/70 
f 70/70/70 69/69/69 64/64/64 
f 70/70/70 64/64/64 63/63/63 
f 69/69/69 67/67/67 65/65/65 
f 69/69/69 65/65/65 64/64/64 

g Dummy4

v -15.165 4.065 80.19 
v -15.165 2.195 80.19 
v -14.295 2.195 80.19 
v -14.295 4.065 80.19 
v -15.165 4.13 80.125 
v -15.23 4.065 80.125 
v -15.23 2.195 80.125 
v -15.165 2.13 80.125 
v -14.295 2.13 80.125 
v -14.23 2.195 80.125 
v -14.23 4.065 80.125 
v -14.295 4.13 80.125 
v -15.165 4.13 80.125 
v -15.165 4.13 79.255 
v -15.23 4.065 79.255 
v -15.23 2.195 79.255 
v -15.165 2.13 79.255 
v -15.165 2.13 80.125 
v -15.165 2.13 80.125 
v -15.165 2.13 79.255 
v -14.295 2.13 79.255 
v -14.295 2.13 80.125 
v -14.295 2.13 80.125 
v -14.295 2.13 79.255 
v -14.23 2.195 79.255 
v -14.23 2.195 80.125 
v -14.23 4.065 79.255 
v -14.23 4.065 80.125 
v -14.295 4.13 79.255 
v -14.295 4.13 80.125 
v -14.295 4.13 80.125 
v -14.295 4.13 79.255 
v -15.165 4.13 79.255 
v -15.165 4.13 80.125 
v -15.165 4.13 79.255 
v -15.165 4.065 79.19 
v -15.165 2.195 79.19 
v -15.165 2.13 79.255 
v -14.295 2.195 79.19 
v -14.295 2.13 79.255 
v -14.295 4.065 79.19 
v -14.295 4.13 79.255 

vn 0 0 1 
vn 0 0 1 
vn 0 0 1 
vn 0 0 1 
vn 0 1 0 
vn -1 0 0 
vn -1 0 0 
vn 0 -1 0 
vn 0 -1 0 
vn 1 0 0 
vn 1 0 0 
vn 0 1 0 
vn 0 1 0 
vn 0 1 0 
vn -1 0 0 
vn -1 0 0 
vn 0 -1 0 
vn 0 -1 0 
vn 0 -1 0 
vn 0 -1 0 
vn 0 -1 0 
vn 0 -1 0 
vn 0 -1 0 
vn 0 -1 0 
vn 1 0 0 
vn 1 0 0 
vn 1 0 0 
vn 1 0 0 
vn 0 1 0 
vn 0 1 0 
vn 0 1 0 
vn 0 1 0 
vn 0 1 0 
vn 0 1 0 
vn 0 1 0 
vn 0 0 -1 
vn 0 0 -1 
vn 0 -1 0 
vn 0 0 -1 
vn 0 -1 0 
vn 0 0 -1 
vn 0 1 0 

vt 0.408691 0.621094 
vt 0.317871 0.621094 
vt 0.317871 0.503906 
vt 0.408691 0.503906 
vt 0.411621 0.621094 
vt 0.408691 0.628906 
vt 0.317871 0.628906 
vt 0.314941 0.621094 
vt 0.314941 0.503906 
vt 0.317871 0.496094 
vt 0.408691 0.496094 
vt 0.411621 0.503906 
vt 0.411621 0.628906 
vt 0.411621 0.746094 
vt 0.408691 0.746094 
vt 0.317871 0.746094 
vt 0.314941 0.746094 
vt 0.314941 0.628906 
vt 0.654785 0.238281 
vt 0.654785 0.355469 
vt 0.61084 0.355469 
vt 0.61084 0.238281 
vt 0.314941 0.996094 
vt 0.314941 0.878906 
vt 0.317871 0.878906 
vt 0.317871 0.996094 
vt 0.408691 0.878906 
vt 0.408691 0.996094 
vt 0.411621 0.878906 
vt 0.411621 0.996094 
vt 0.14795 0.210937 
vt 0.14795 0.09375 
vt 0.191894 0.09375 
vt 0.191894 0.210937 
vt 0.411621 0.753906 
vt 0.408691 0.753906 
vt 0.317871 0.753906 
vt 0.314941 0.753906 
vt 0.317871 0.871094 
vt 0.314941 0.871094 
vt 0.408691 0.871094 
vt 0.411621 0.871094 

usemtl Dummy3Mtl

f 71/71/71 72/72/72 73/73/73 
f 71/71/71 73/73/73 74/74/74 
f 71/71/71 75/75/75 76/76/76 
f 71/71/71 76/76/76 77/77/77 
f 71/71/71 77/77/77 72/72/72 
f 72/72/72 77/77/77 78/78/78 
f 72/72/72 78/78/78 79/79/79 
f 72/72/72 79/79/79 73/73/73 
f 73/73/73 79/79/79 80/80/80 
f 73/73/73 80/80/80 81/81/81 
f 73/73/73 81/81/81 74/74/74 
f 74/74/74 81/81/81 82/82/82 
f 74/74/74 82/82/82 75/75/75 
f 74/74/74 75/75/75 71/71/71 
f 83/83/83 84/84/84 85/85/85 
f 83/83/83 85/85/85 76/76/76 
f 76/76/76 85/85/85 86/86/86 
f 76/76/76 86/86/86 77/77/77 
f 77/77/77 86/86/86 87/87/87 
f 77/77/77 87/87/87 88/88/88 
f 89/89/89 90/90/90 91/91/91 
f 89/89/89 91/91/91 92/92/92 
f 93/93/93 94/94/94 95/95/95 
f 93/93/93 95/95/95 96/96/96 
f 96/96/96 95/95/95 97/97/97 
f 96/96/96 97/97/97 98/98/98 
f 98/98/98 97/97/97 99/99/99 
f 98/98/98 99/99/99 100/100/100 
f 101/101/101 102/102/102 103/103/103 
f 101/101/101 103/103/103 104/104/104 
f 105/105/105 106/106/106 85/85/85 
f 85/85/85 106/106/106 107/107/107 
f 85/85/85 107/107/107 86/86/86 
f 86/86/86 107/107/107 108/108/108 
f 108/108/108 107/107/107 109/109/109 
f 108/108/108 109/109/109 110/110/110 
f 110/110/110 109/109/109 95/95/95 
f 95/95/95 109/109/109 111/111/111 
f 95/95/95 111/111/111 97/97/97 
f 97/97/97 111/111/111 112/112/112 
f 112/112/112 111/111/111 106/106/106 
f 112/112/112 106/106/106 105/105/105 
f 111/111/111 109/109/109 107/107/107 
f 111/111/111 107/107/107 106/106/106 

g Dummy5

v -13.165 2.065 80.19 
v -13.165 0.195 80.19 
v -12.295 0.195 80.19 
v -12.295 2.065 80.19 
v -13.165 2.13 80.125 
v -13.23 2.065 80.125 
v -13.23 0.195 80.125 
v -13.165 0.13 80.125 
v -12.295 0.13 80.125 
v -12.23 0.195 80.125 
v -12.23 2.065 80.125 
v -12.295 2.13 80.125 
v -13.165 2.13 80.125 
v -13.165 2.13 79.255 
v -13.23 2.065 79.255 
v -13.23 2.065 80.125 
v -13.23 0.195 79.255 
v -13.23 0.195 80.125 
v -13.165 0.13 79.255 
v -13.165 0.13 80.125 
v -13.165 0.13 80.125 
v -13.165 0.13 79.255 
v -12.295 0.13 79.255 
v -12.295 0.13 80.125 
v -12.295 0.13 80.125 
v -12.295 0.13 79.255 
v -12.23 0.195 79.255 
v -12.23 2.065 79.255 
v -12.295 2.13 79.255 
v -12.295 2.13 80.125 
v -12.295 2.13 80.125 
v -12.295 2.13 79.255 
v -13.165 2.13 79.255 
v -13.165 2.13 80.125 
v -13.165 2.13 79.255 
v -13.165 2.065 79.19 
v -13.165 0.195 79.19 
v -13.165 0.13 79.255 
v -12.295 0.195 79.19 
v -12.295 0.13 79.255 
v -12.295 2.065 79.19 
v -12.295 2.13 79.255 

vn 0 0 1 
vn 0 0 1 
vn 0 0 1 
vn 0 0 1 
vn 0 1 0 
vn -1 0 0 
vn -1 0 0 
vn 0 -1 0 
vn 0 -1 0 
vn 1 0 0 
vn 1 0 0 
vn 0 1 0 
vn 0 1 0 
vn 0 1 0 
vn -1 0 0 
vn -1 0 0 
vn -1 0 0 
vn -1 0 0 
vn 0 -1 0 
vn 0 -1 0 
vn 0 -1 0 
vn 0 -1 0 
vn 0 -1 0 
vn 0 -1 0 
vn 0 -1 0 
vn 0 -1 0 
vn 1 0 0 
vn 1 0 0 
vn 0 1 0 
vn 0 1 0 
vn 0 1 0 
vn 0 1 0 
vn 0 1 0 
vn 0 1 0 
vn 0 1 0 
vn 0 0 -1 
vn 0 0 -1 
vn 0 -1 0 
vn 0 0 -1 
vn 0 -1 0 
vn 0 0 -1 
vn 0 1 0 

vt 0.555176 0.871094 
vt 0.464356 0.871094 
vt 0.464356 0.753906 
vt 0.555176 0.753906 
vt 0.558106 0.871094 
vt 0.555176 0.878906 
vt 0.464356 0.878906 
vt 0.461426 0.871094 
vt 0.461426 0.753906 
vt 0.464356 0.746094 
vt 0.555176 0.746094 
vt 0.558106 0.753906 
vt 0.558106 0.378906 
vt 0.558106 0.496094 
vt 0.555176 0.496094 
vt 0.555176 0.378906 
vt 0.464356 0.496094 
vt 0.464356 0.378906 
vt 0.461426 0.496094 
vt 0.461426 0.378906 
vt 0.496582 0.238281 
vt 0.496582 0.355469 
vt 0.452637 0.355469 
vt 0.452637 0.238281 
vt 0.461426 0.746094 
vt 0.461426 0.628906 
vt 0.464356 0.628906 
vt 0.555176 0.628906 
vt 0.558106 0.628906 
vt 0.558106 0.746094 
vt 0.347168 0.355469 
vt 0.347168 0.238281 
vt 0.391113 0.238281 
vt 0.391113 0.355469 
vt 0.558106 0.503906 
vt 0.555176 0.503906 
vt 0.464356 0.503906 
vt 0.461426 0.503906 
vt 0.464356 0.621094 
vt 0.461426 0.621094 
vt 0.555176 0.621094 
vt 0.558106 0.621094 

usemtl Dummy3Mtl

f 113/113/113 114/114/114 115/115/115 
f 113/113/113 115/115/115 116/116/116 
f 113/113/113 117/117/117 118/118/118 
f 113/113/113 118/118/118 119/119/119 
f 113/113/113 119/119/119 114/114/114 
f 114/114/114 119/119/119 120/120/120 
f 114/114/114 120/120/120 121/121/121 
f 114/114/114 121/121/121 115/115/115 
f 115/115/115 121/121/121 122/122/122 
f 115/115/115 122/122/122 123/123/123 
f 115/115/115 123/123/123 116/116/116 
f 116/116/116 123/123/123 124/124/124 
f 116/116/116 124/124/124 117/117/117 
f 116/116/116 117/117/117 113/113/113 
f 125/125/125 126/126/126 127/127/127 
f 125/125/125 127/127/127 128/128/128 
f 128/128/128 127/127/127 129/129/129 
f 128/128/128 129/129/129 130/130/130 
f 130/130/130 129/129/129 131/131/131 
f 130/130/130 131/131/131 132/132/132 
f 133/133/133 134/134/134 135/135/135 
f 133/133/133 135/135/135 136/136/136 
f 137/137/137 138/138/138 139/139/139 
f 137/137/137 139/139/139 122/122/122 
f 122/122/122 139/139/139 140/140/140 
f 122/122/122 140/140/140 123/123/123 
f 123/123/123 140/140/140 141/141/141 
f 123/123/123 141/141/141 142/142/142 
f 143/143/143 144/144/144 145/145/145 
f 143/143/143 145/145/145 146/146/146 
f 147/147/147 148/148/148 127/127/127 
f 127/127/127 148/148/148 149/149/149 
f 127/127/127 149/149/149 129/129/129 
f 129/129/129 149/149/149 150/150/150 
f 150/150/150 149/149/149 151/151/151 
f 150/150/150 151/151/151 152/152/152 
f 152/152/152 151/151/151 139/139/139 
f 139/139/139 151/151/151 153/153/153 
f 139/139/139 153/153/153 140/140/140 
f 140/140/140 153/153/153 154/154/154 
f 154/154/154 153/153/153 148/148/148 
f 154/154/154 148/148/148 147/147/147 
f 153/153/153 151/151/151 149/149/149 
f 153/153/153 149/149/149 148/148/148 

g Dummy6

v -14.165 2.065 80.19 
v -14.165 0.195 80.19 
v -13.295 0.195 80.19 
v -13.295 2.065 80.19 
v -14.165 2.13 80.125 
v -14.23 2.065 80.125 
v -14.23 0.195 80.125 
v -14.165 0.13 80.125 
v -13.295 0.13 80.125 
v -13.23 0.195 80.125 
v -13.23 2.065 80.125 
v -13.295 2.13 80.125 
v -14.165 2.13 80.125 
v -14.165 2.13 79.255 
v -14.23 2.065 79.255 
v -14.23 0.195 79.255 
v -14.165 0.13 79.255 
v -14.165 0.13 80.125 
v -14.165 0.13 80.125 
v -14.165 0.13 79.255 
v -13.295 0.13 79.255 
v -13.295 0.13 80.125 
v -13.295 0.13 80.125 
v -13.295 0.13 79.255 
v -13.23 0.195 79.255 
v -13.23 0.195 80.125 
v -13.23 2.065 79.255 
v -13.23 2.065 80.125 
v -13.295 2.13 79.255 
v -13.295 2.13 80.125 
v -13.295 2.13 80.125 
v -13.295 2.13 79.255 
v -14.165 2.13 79.255 
v -14.165 2.13 80.125 
v -14.165 2.13 79.255 
v -14.165 2.065 79.19 
v -14.165 0.195 79.19 
v -14.165 0.13 79.255 
v -13.295 0.195 79.19 
v -13.295 0.13 79.255 
v -13.295 2.065 79.19 
v -13.295 2.13 79.255 

vn 0 0 1 
vn 0 0 1 
vn 0 0 1 
vn 0 0 1 
vn 0 1 0 
vn -1 0 0 
vn -1 0 0 
vn 0 -1 0 
vn 0 -1 0 
vn 1 0 0 
vn 1 0 0 
vn 0 1 0 
vn 0 1 0 
vn 0 1 0 
vn -1 0 0 
vn -1 0 0 
vn 0 -1 0 
vn 0 -1 0 
vn 0 -1 0 
vn 0 -1 0 
vn 0 -1 0 
vn 0 -1 0 
vn 0 -1 0 
vn 0 -1 0 
vn 1 0 0 
vn 1 0 0 
vn 1 0 0 
vn 1 0 0 
vn 0 1 0 
vn 0 1 0 
vn 0 1 0 
vn 0 1 0 
vn 0 1 0 
vn 0 1 0 
vn 0 1 0 
vn 0 0 -1 
vn 0 0 -1 
vn 0 -1 0 
vn 0 0 -1 
vn 0 -1 0 
vn 0 0 -1 
vn 0 1 0 

vt 0.70166 0.621094 
vt 0.61084 0.621094 
vt 0.61084 0.503906 
vt 0.70166 0.503906 
vt 0.70459 0.621094 
vt 0.70166 0.628906 
vt 0.61084 0.628906 
vt 0.60791 0.621094 
vt 0.60791 0.503906 
vt 0.61084 0.496094 
vt 0.70166 0.496094 
vt 0.70459 0.503906 
vt 0.70459 0.628906 
vt 0.70459 0.746094 
vt 0.70166 0.746094 
vt 0.61084 0.746094 
vt 0.60791 0.746094 
vt 0.60791 0.628906 
vt 0.549317 0.238281 
vt 0.549317 0.355469 
vt 0.505371 0.355469 
vt 0.505371 0.238281 
vt 0.60791 0.996094 
vt 0.60791 0.878906 
vt 0.61084 0.878906 
vt 0.61084 0.996094 
vt 0.70166 0.878906 
vt 0.70166 0.996094 
vt 0.70459 0.878906 
vt 0.70459 0.996094 
vt 0.399902 0.355469 
vt 0.399902 0.238281 
vt 0.443848 0.238281 
vt 0.443848 0.355469 
vt 0.70459 0.753906 
vt 0.70166 0.753906 
vt 0.61084 0.753906 
vt 0.60791 0.753906 
vt 0.61084 0.871094 
vt 0.60791 0.871094 
vt 0.70166 0.871094 
vt 0.70459 0.871094 

usemtl Dummy3Mtl

f 155/155/155 156/156/156 157/157/157 
f 155/155/155 157/157/157 158/158/158 
f 155/155/155 159/159/159 160/160/160 
f 155/155/155 160/160/160 161/161/161 
f 155/155/155 161/161/161 156/156/156 
f 156/156/156 161/161/161 162/162/162 
f 156/156/156 162/162/162 163/163/163 
f 156/156/156 163/163/163 157/157/157 
f 157/157/157 163/163/163 164/164/164 
f 157/157/157 164/164/164 165/165/165 
f 157/157/157 165/165/165 158/158/158 
f 158/158/158 165/165/165 166/166/166 
f 158/158/158 166/166/166 159/159/159 
f 158/158/158 159/159/159 155/155/155 
f 167/167/167 168/168/168 169/169/169 
f 167/167/167 169/169/169 160/160/160 
f 160/160/160 169/169/169 170/170/170 
f 160/160/160 170/170/170 161/161/161 
f 161/161/161 170/170/170 171/171/171 
f 161/161/161 171/171/171 172/172/172 
f 173/173/173 174/174/174 175/175/175 
f 173/173/173 175/175/175 176/176/176 
f 177/177/177 178/178/178 179/179/179 
f 177/177/177 179/179/179 180/180/180 
f 180/180/180 179/179/179 181/181/181 
f 180/180/180 181/181/181 182/182/182 
f 182/182/182 181/181/181 183/183/183 
f 182/182/182 183/183/183 184/184/184 
f 185/185/185 186/186/186 187/187/187 
f 185/185/185 187/187/187 188/188/188 
f 189/189/189 190/190/190 169/169/169 
f 169/169/169 190/190/190 191/191/191 
f 169/169/169 191/191/191 170/170/170 
f 170/170/170 191/191/191 192/192/192 
f 192/192/192 191/191/191 193/193/193 
f 192/192/192 193/193/193 194/194/194 
f 194/194/194 193/193/193 179/179/179 
f 179/179/179 193/193/193 195/195/195 
f 179/179/179 195/195/195 181/181/181 
f 181/181/181 195/195/195 196/196/196 
f 196/196/196 195/195/195 190/190/190 
f 196/196/196 190/190/190 189/189/189 
f 195/195/195 193/193/193 191/191/191 
f 195/195/195 191/191/191 190/190/190 

g Dummy7

v -14.165 4.065 80.19 
v -14.165 2.195 80.19 
v -12.295 2.195 80.19 
v -12.295 4.065 80.19 
v -14.165 4.13 80.125 
v -14.23 4.065 80.125 
v -14.23 2.195 80.125 
v -14.165 2.13 80.125 
v -12.295 2.13 80.125 
v -12.23 2.195 80.125 
v -12.23 4.065 80.125 
v -12.295 4.13 80.125 
v -14.165 4.13 80.125 
v -14.165 4.13 79.255 
v -14.23 4.065 79.255 
v -14.23 2.195 79.255 
v -14.165 2.13 79.255 
v -14.165 2.13 80.125 
v -14.165 2.13 80.125 
v -14.165 2.13 79.255 
v -12.295 2.13 79.255 
v -12.295 2.13 80.125 
v -12.295 2.13 80.125 
v -12.295 2.13 79.255 
v -12.23 2.195 79.255 
v -12.23 2.195 80.125 
v -12.23 4.065 79.255 
v -12.23 4.065 80.125 
v -12.295 4.13 79.255 
v -12.295 4.13 80.125 
v -12.295 4.13 80.125 
v -12.295 4.13 79.255 
v -14.165 4.13 79.255 
v -14.165 4.13 80.125 
v -14.165 4.13 79.255 
v -14.165 4.065 79.19 
v -14.165 2.195 79.19 
v -14.165 2.13 79.255 
v -12.295 2.195 79.19 
v -12.295 2.13 79.255 
v -12.295 4.065 79.19 
v -12.295 4.13 79.255 

vn 0 0 1 
vn 0 0 1 
vn 0 0 1 
vn 0 0 1 
vn 0 1 0 
vn -1 0 0 
vn -1 0 0 
vn 0 -1 0 
vn 0 -1 0 
vn 1 0 0 
vn 1 0 0 
vn 0 1 0 
vn 0 1 0 
vn 0 1 0 
vn -1 0 0 
vn -1 0 0 
vn 0 -1 0 
vn 0 -1 0 
vn 0 -1 0 
vn 0 -1 0 
vn 0 -1 0 
vn 0 -1 0 
vn 0 -1 0 
vn 0 -1 0 
vn 1 0 0 
vn 1 0 0 
vn 1 0 0 
vn 1 0 0 
vn 0 1 0 
vn 0 1 0 
vn 0 1 0 
vn 0 1 0 
vn 0 1 0 
vn 0 1 0 
vn 0 1 0 
vn 0 0 -1 
vn 0 0 -1 
vn 0 -1 0 
vn 0 0 -1 
vn 0 -1 0 
vn 0 0 -1 
vn 0 1 0 

vt 0.115723 0.496094 
vt 0.0249022 0.496094 
vt 0.0249022 0.253906 
vt 0.115723 0.253906 
vt 0.118652 0.496094 
vt 0.115723 0.503906 
vt 0.0249022 0.503906 
vt 0.0219727 0.496094 
vt 0.0219727 0.253906 
vt 0.0249022 0.246094 
vt 0.115723 0.246094 
vt 0.118652 0.253906 
vt 0.118652 0.503906 
vt 0.118652 0.621094 
vt 0.115723 0.621094 
vt 0.0249022 0.621094 
vt 0.0219727 0.621094 
vt 0.0219727 0.503906 
vt 0.337646 0.240234 
vt 0.337646 0.357422 
vt 0.246826 0.357422 
vt 0.246826 0.240234 
vt 0.0219727 0.996094 
vt 0.0219727 0.878906 
vt 0.0249022 0.878906 
vt 0.0249022 0.996094 
vt 0.115723 0.878906 
vt 0.115723 0.996094 
vt 0.118652 0.878906 
vt 0.118652 0.996094 
vt 0.14795 0.357422 
vt 0.14795 0.240234 
vt 0.238769 0.240234 
vt 0.238769 0.357422 
vt 0.118652 0.628906 
vt 0.115723 0.628906 
vt 0.0249022 0.628906 
vt 0.0219727 0.628906 
vt 0.0249022 0.871094 
vt 0.0219727 0.871094 
vt 0.115723 0.871094 
vt 0.118652 0.871094 

usemtl Dummy3Mtl

f 197/197/197 198/198/198 199/199/199 
f 197/197/197 199/199/199 200/200/200 
f 197/197/197 201/201/201 202/202/202 
f 197/197/197 202/202/202 203/203/203 
f 197/197/197 203/203/203 198/198/198 
f 198/198/198 203/203/203 204/204/204 
f 198/198/198 204/204/204 205/205/205 
f 198/198/198 205/205/205 199/199/199 
f 199/199/199 205/205/205 206/206/206 
f 199/199/199 206/206/206 207/207/207 
f 199/199/199 207/207/207 200/200/200 
f 200/200/200 207/207/207 208/208/208 
f 200/200/200 208/208/208 201/201/201 
f 200/200/200 201/201/201 197/197/197 
f 209/209/209 210/210/210 211/211/211 
f 209/209/209 211/211/211 202/202/202 
f 202/202/202 211/211/211 212/212/212 
f 202/202/202 212/212/212 203/203/203 
f 203/203/203 212/212/212 213/213/213 
f 203/203/203 213/213/213 214/214/214 
f 215/215/215 216/216/216 217/217/217 
f 215/215/215 217/217/217 218/218/218 
f 219/219/219 220/220/220 221/221/221 
f 219/219/219 221/221/221 222/222/222 
f 222/222/222 221/221/221 223/223/223 
f 222/222/222 223/223/223 224/224/224 
f 224/224/224 223/223/223 225/225/225 
f 224/224/224 225/225/225 226/226/226 
f 227/227/227 228/228/228 229/229/229 
f 227/227/227 229/229/229 230/230/230 
f 231/231/231 232/232/232 211/211/211 
f 211/211/211 232/232/232 233/233/233 
f 211/211/211 233/233/233 212/212/212 
f 212/212/212 233/233/233 234/234/234 
f 234/234/234 233/233/233 235/235/235 
f 234/234/234 235/235/235 236/236/236 
f 236/236/236 235/235/235 221/221/221 
f 221/221/221 235/235/235 237/237/237 
f 221/221/221 237/237/237 223/223/223 
f 223/223/223 237/237/237 238/238/238 
f 238/238/238 237/237/237 232/232/232 
f 238/238/238 232/232/232 231/231/231 
f 237/237/237 235/235/235 233/233/233 
f 237/237/237 233/233/233 232/232/232 

g Dummy8

v -12.23 4.13 79.19 
v -12.23 4.13 80.19 
v -12.23 2.13 79.19 
v -12.23 2.13 80.19 
v -14.23 4.13 80.19 
v -12.23 4.13 80.19 
v -14.23 4.13 79.19 
v -12.23 4.13 79.19 
v -12.23 4.13 80.19 
v -14.23 4.13 80.19 
v -12.23 2.13 80.19 
v -14.23 2.13 80.19 
v -14.23 4.13 80.19 
v -14.23 4.13 79.19 
v -14.23 2.13 80.19 
v -14.23 2.13 79.19 
v -14.23 2.13 79.19 
v -12.23 2.13 79.19 
v -14.23 2.13 80.19 
v -12.23 2.13 80.19 
v -14.23 4.13 79.19 
v -12.23 4.13 79.19 
v -14.23 2.13 79.19 
v -12.23 2.13 79.19 

vn 1 0 0 
vn 1 0 0 
vn 1 0 0 
vn 1 0 0 
vn 0 1 0 
vn 0 1 0 
vn 0 1 0 
vn 0 1 0 
vn 0 0 1 
vn 0 0 1 
vn 0 0 1 
vn 0 0 1 
vn -1 0 0 
vn -1 0 0 
vn -1 0 0 
vn -1 0 0 
vn 0 -1 0 
vn 0 -1 0 
vn 0 -1 0 
vn 0 -1 0 
vn 0 0 -1 
vn 0 0 -1 
vn 0 0 -1 
vn 0 0 -1 

vt -1.63442 2.14145 
vt -2.93442 2.14145 
vt -1.63442 -0.458555 
vt -2.93442 -0.458555 
vt -0.334425 2.14145 
vt -2.93442 2.14145 
vt -0.334425 0.841445 
vt -2.93442 0.841445 
vt -0.334425 2.14145 
vt -2.93442 2.14145 
vt -0.334425 -0.458555 
vt -2.93442 -0.458555 
vt -1.63442 2.14145 
vt -2.93442 2.14145 
vt -1.63442 -0.458555 
vt -2.93442 -0.458555 
vt -0.334425 2.14145 
vt -2.93442 2.14145 
vt -0.334425 0.841445 
vt -2.93442 0.841445 
vt -0.334425 2.14145 
vt -2.93442 2.14145 
vt -0.334425 -0.458555 
vt -2.93442 -0.458555 

usemtl Dummy8Mtl

f 239/239/239 240/240/240 241/241/241 
f 241/241/241 240/240/240 242/242/242 
f 243/243/243 244/244/244 245/245/245 
f 245/245/245 244/244/244 246/246/246 
f 247/247/247 248/248/248 249/249/249 
f 249/249/249 248/248/248 250/250/250 
f 251/251/251 252/252/252 253/253/253 
f 253/253/253 252/252/252 254/254/254 
f 255/255/255 256/256/256 257/257/257 
f 257/257/257 256/256/256 258/258/258 
f 259/259/259 260/260/260 261/261/261 
f 261/261/261 260/260/260 262/262/262 

